<?xml version="1.0" standalone="no"?>
<!DOCTYPE svg PUBLIC "-//W3C//DTD SVG 20010904//EN"
 "http://www.w3.org/TR/2001/REC-SVG-20010904/DTD/svg10.dtd">
<svg version="1.0" xmlns="http://www.w3.org/2000/svg"
 width="3464.000000pt" height="3464.000000pt" viewBox="0 0 3464.000000 3464.000000"
 preserveAspectRatio="xMidYMid meet">

<g transform="translate(0.000000,3464.000000) scale(0.100000,-0.100000)"
fill="#000000" stroke="none">
<path d="M16010 31635 c-186 -42 -344 -139 -521 -322 -145 -151 -202 -231
-256 -358 -90 -214 -221 -523 -248 -585 -18 -41 -63 -147 -100 -235 -37 -88
-80 -189 -96 -225 -15 -36 -55 -128 -87 -205 -33 -77 -90 -212 -127 -300 -37
-88 -82 -194 -100 -235 -18 -41 -76 -178 -130 -305 -53 -126 -116 -275 -140
-330 -23 -55 -73 -172 -110 -260 -37 -88 -82 -194 -100 -235 -18 -41 -63 -147
-100 -235 -195 -463 -187 -446 -253 -509 -77 -73 -154 -185 -193 -278 -16 -40
-73 -188 -125 -328 -52 -140 -108 -289 -124 -330 -16 -41 -43 -111 -58 -155
-86 -235 -124 -328 -169 -405 -47 -80 -78 -134 -220 -377 -31 -54 -83 -143
-115 -198 -75 -128 -142 -259 -158 -310 -7 -22 -23 -53 -35 -70 -66 -89 -131
-269 -146 -409 -8 -66 -18 -103 -39 -140 -15 -28 -101 -188 -190 -356 -90
-168 -175 -327 -190 -355 -15 -27 -106 -198 -202 -380 -97 -181 -189 -355
-206 -385 -170 -312 -192 -358 -222 -466 -17 -58 -33 -90 -71 -137 -105 -130
-179 -331 -179 -490 0 -43 -33 -113 -314 -670 -172 -342 -488 -968 -701 -1392
-213 -423 -542 -1076 -730 -1450 -188 -374 -519 -1031 -735 -1460 -216 -429
-528 -1049 -694 -1377 l-301 -598 -3321 0 c-3691 0 -3405 5 -3587 -69 -268
-109 -455 -329 -532 -626 -13 -49 -18 -106 -18 -190 0 -105 6 -152 50 -366 72
-349 125 -467 275 -617 86 -85 150 -131 249 -179 156 -76 254 -89 754 -98 187
-3 504 -10 705 -15 587 -15 809 -20 1865 -40 1961 -39 2584 -55 2596 -67 3 -4
12 -26 19 -48 21 -65 95 -207 137 -260 21 -28 56 -79 77 -115 70 -116 124
-180 216 -255 175 -143 434 -222 642 -196 169 21 334 85 446 173 26 20 87 60
136 90 96 57 221 171 274 250 18 26 64 109 103 185 40 76 75 141 78 144 7 8
610 -4 2346 -46 1232 -30 1452 -35 2025 -46 322 -6 588 -14 592 -18 7 -6 -12
-286 -52 -761 -37 -446 -40 -483 -60 -760 -19 -260 -28 -356 -50 -545 -6 -44
-23 -228 -40 -410 -17 -181 -37 -384 -45 -450 -7 -66 -23 -221 -35 -345 -12
-124 -32 -333 -46 -465 -13 -132 -38 -379 -54 -550 -17 -170 -39 -395 -50
-500 -11 -104 -40 -397 -65 -650 -25 -253 -52 -521 -60 -595 -17 -160 -19
-429 -4 -555 44 -363 303 -660 662 -759 28 -8 77 -24 107 -35 327 -125 691
-54 938 183 147 141 244 332 267 526 6 51 27 135 140 545 61 223 73 280 90
445 38 365 46 439 65 655 12 127 30 309 40 405 11 96 33 322 50 502 16 180 34
369 40 420 40 384 50 487 60 593 16 174 60 621 68 685 8 64 -11 57 232 90 80
10 183 30 229 44 l84 24 76 -38 c84 -41 354 -134 441 -150 83 -16 274 -13 360
5 41 9 119 35 172 60 l98 44 118 -26 c210 -45 431 -21 602 65 l75 38 105 -28
c241 -63 495 -21 706 117 l84 55 53 -83 c67 -103 155 -191 260 -260 98 -65
181 -99 308 -127 85 -19 116 -21 319 -17 192 4 236 8 300 26 197 57 366 171
480 323 l55 74 140 11 c77 7 164 18 194 26 45 13 61 13 105 1 68 -18 242 -36
281 -28 24 4 45 -2 92 -30 34 -20 110 -53 170 -74 l108 -37 230 0 230 0 102
32 101 33 232 0 c216 0 231 -1 226 -17 -3 -10 -15 -67 -27 -127 -63 -317 34
-628 264 -842 45 -42 111 -92 147 -112 35 -20 93 -58 127 -84 85 -64 134 -91
228 -128 152 -58 194 -62 607 -58 415 5 433 7 592 82 92 43 148 85 471 351
148 121 320 263 384 315 169 138 267 241 323 341 27 46 49 88 51 94 2 5 34
-10 70 -34 130 -84 319 -141 473 -141 87 0 293 34 604 101 52 11 185 38 295
59 110 22 301 60 424 85 123 25 243 45 266 45 45 0 156 26 245 57 44 16 73 19
142 15 100 -5 226 11 315 40 61 20 62 20 90 1 49 -35 286 -141 348 -157 167
-42 283 -38 544 19 516 113 604 135 684 169 38 17 41 16 108 -9 112 -43 167
-55 279 -62 122 -7 218 6 331 44 l79 27 82 -27 c217 -70 425 -60 635 30 144
63 266 163 375 308 85 114 343 480 384 545 86 137 128 292 127 465 0 107 -5
141 -46 310 -69 289 -113 394 -219 533 -54 70 -115 123 -213 187 -208 134
-465 177 -692 114 l-71 -19 -79 22 c-62 17 -105 22 -213 22 -122 1 -144 -2
-228 -28 l-93 -30 -67 36 c-118 63 -270 98 -429 98 l-102 0 -73 49 c-40 27
-92 59 -115 71 l-42 22 78 116 c83 122 1711 2572 1843 2773 42 63 107 171 144
240 36 68 86 158 109 199 23 41 70 127 105 190 35 63 82 149 105 190 23 41 70
127 105 190 35 63 84 153 110 200 26 47 112 202 190 345 78 143 162 294 185
335 23 41 57 102 75 135 93 170 150 272 276 500 177 322 239 444 259 510 15
53 72 376 101 575 45 306 -90 628 -346 825 -69 53 -219 127 -305 151 -36 10
-115 18 -195 21 -150 5 -194 -2 -480 -77 -204 -54 -317 -112 -436 -223 -142
-133 -180 -195 -283 -470 -54 -142 -62 -156 -116 -211 -66 -69 -120 -148 -203
-302 -32 -60 -72 -134 -89 -164 -17 -30 -60 -109 -95 -175 -36 -66 -109 -201
-163 -300 -181 -332 -201 -369 -285 -525 -95 -176 -88 -165 -96 -158 -3 3 8
59 25 124 17 66 55 223 86 349 30 127 78 325 106 440 27 116 72 300 99 410 76
310 123 505 200 825 92 380 140 581 196 810 70 288 128 526 184 760 119 492
181 736 209 818 16 48 57 177 91 287 34 110 84 272 112 360 27 88 70 225 95
305 24 80 67 217 95 305 105 337 138 446 191 615 30 96 83 265 117 375 34 110
76 247 95 305 18 58 61 195 95 305 34 110 80 255 101 321 60 188 69 261 69
543 0 324 -19 434 -97 581 -48 89 -98 153 -205 265 -159 166 -290 260 -434
309 -132 44 -194 51 -454 50 -231 -1 -251 -2 -345 -27 -191 -51 -323 -135
-505 -323 -123 -127 -169 -189 -219 -294 -22 -47 -147 -393 -277 -770 -130
-377 -264 -761 -296 -855 -33 -93 -75 -215 -93 -270 -19 -55 -59 -170 -88
-255 -30 -85 -186 -535 -347 -1000 -161 -465 -319 -921 -352 -1015 -33 -93
-75 -215 -93 -270 -19 -55 -60 -176 -93 -270 -33 -93 -90 -258 -127 -365 -61
-174 -131 -353 -200 -507 l-24 -53 -274 0 c-440 0 -466 -9 -927 -319 -223
-150 -287 -198 -333 -252 -23 -26 -53 -47 -87 -60 -76 -29 -148 -67 -205 -107
-66 -47 -276 -252 -329 -322 -23 -30 -210 -316 -416 -635 -505 -786 -515 -801
-593 -921 -38 -58 -71 -104 -72 -102 -4 4 79 211 170 423 102 242 113 292 121
565 7 232 -5 406 -37 520 -59 214 -246 439 -444 535 -93 45 -429 180 -497 200
-81 23 -216 45 -279 45 -177 0 -403 -82 -545 -197 -27 -22 -68 -41 -115 -54
-99 -27 -251 -107 -326 -171 -73 -62 -114 -109 -283 -320 -68 -86 -128 -154
-132 -152 -4 3 -8 42 -8 87 0 202 -59 374 -180 532 -61 79 -439 447 -502 488
-70 46 -201 103 -288 125 -53 14 -120 17 -372 17 -170 0 -308 3 -308 7 0 10
68 205 155 448 37 102 72 203 80 225 7 22 48 137 90 255 42 118 94 265 115
325 22 61 67 187 100 280 34 94 81 226 105 295 24 69 71 202 105 295 34 94 70
195 80 225 19 58 100 285 200 565 34 94 79 220 100 280 21 61 71 200 110 310
92 255 108 316 121 445 16 167 0 296 -63 490 -89 274 -150 384 -286 511 -125
117 -276 194 -445 226 -109 20 -656 14 -732 -9 -197 -59 -305 -128 -486 -308
-149 -149 -191 -207 -299 -415 -40 -77 -94 -180 -120 -230 -26 -49 -78 -148
-115 -220 -414 -796 -306 -620 -1158 -1900 -253 -380 -277 -420 -323 -551 -32
-91 -47 -117 -92 -168 -112 -126 -156 -211 -241 -466 l-62 -186 -142 -217
c-78 -119 -209 -320 -292 -447 -82 -127 -195 -299 -250 -383 -55 -84 -138
-211 -184 -282 -47 -72 -132 -202 -190 -290 -58 -88 -126 -200 -151 -250 -86
-170 -112 -384 -71 -580 24 -114 41 -156 109 -274 30 -52 60 -111 67 -132 41
-115 140 -265 225 -342 182 -164 396 -243 636 -235 63 2 114 0 114 -3 0 -7
-55 -200 -135 -474 -132 -451 -160 -559 -206 -785 -100 -494 -150 -741 -204
-1005 -31 -148 -73 -358 -95 -465 -22 -107 -64 -316 -94 -464 -30 -148 -58
-272 -63 -277 -5 -5 -156 -4 -338 1 -182 6 -521 14 -753 19 -233 5 -427 12
-430 16 -6 6 21 311 64 710 13 127 38 367 55 535 16 168 45 449 64 625 19 176
41 397 50 490 9 94 29 292 45 440 16 149 39 367 50 485 25 260 35 355 55 525
8 72 26 252 40 400 14 149 36 369 50 490 13 121 36 342 50 490 14 149 35 351
46 450 11 99 38 356 59 570 61 613 107 1063 145 1415 19 179 44 424 55 545 11
121 32 319 45 440 13 121 36 339 50 485 14 146 36 364 50 485 13 121 31 297
40 390 9 94 31 316 50 495 32 295 54 513 131 1275 13 138 36 356 50 485 13
129 38 370 54 535 16 165 45 446 65 625 19 179 41 402 50 495 9 94 31 314 50
490 85 791 86 818 83 1211 -4 405 -10 444 -87 594 -75 147 -246 394 -322 466
-104 98 -250 181 -384 220 -84 25 -754 31 -855 9z m436 -826 c104 -19 233
-110 278 -198 28 -54 48 -162 42 -226 -3 -33 -15 -157 -26 -275 -11 -118 -34
-354 -50 -525 -16 -170 -38 -404 -50 -520 -49 -513 -72 -765 -85 -968 -8 -120
-17 -233 -20 -250 -3 -18 -14 -133 -25 -257 -10 -124 -35 -387 -54 -585 -20
-198 -42 -434 -51 -525 -34 -368 -45 -491 -60 -625 -8 -77 -27 -268 -41 -425
-33 -368 -49 -541 -68 -720 -8 -80 -20 -215 -26 -300 -22 -322 -69 -817 -150
-1590 -17 -157 -44 -422 -60 -590 -16 -168 -32 -318 -35 -335 -2 -16 -13 -120
-25 -230 -39 -393 -70 -683 -90 -855 -11 -96 -20 -206 -20 -243 0 -38 -5 -110
-10 -160 -26 -241 -93 -857 -115 -1072 -14 -132 -36 -343 -50 -470 -14 -126
-32 -297 -40 -380 -8 -82 -22 -206 -30 -275 -43 -371 -102 -950 -110 -1080 -3
-58 -13 -154 -20 -215 -8 -60 -21 -182 -30 -270 -8 -88 -31 -299 -50 -470 -19
-170 -48 -440 -65 -600 -17 -159 -39 -362 -50 -450 -11 -88 -24 -212 -30 -275
-6 -63 -25 -234 -41 -380 -47 -424 -62 -571 -56 -576 6 -6 1911 -23 2663 -24
l542 0 10 43 c6 23 13 65 17 92 7 52 54 286 104 515 16 74 43 200 60 280 18
80 43 190 56 245 13 55 29 127 35 160 7 33 27 121 45 195 19 74 41 178 50 230
27 155 168 752 258 1090 67 249 125 481 135 534 11 59 26 112 192 706 99 352
151 547 167 625 13 60 49 188 199 700 63 215 123 419 134 455 10 36 23 88 29
115 6 28 24 93 40 145 81 268 178 577 262 837 27 83 49 161 49 172 0 21 32
121 251 786 66 197 119 366 119 375 0 8 34 115 76 238 42 123 74 225 72 228
-6 5 -148 -214 -148 -227 0 -12 -47 -85 -75 -119 -12 -14 -63 -90 -115 -170
-51 -80 -110 -168 -131 -195 -21 -28 -42 -62 -47 -76 -11 -27 -180 -290 -192
-299 -12 -8 -160 -242 -160 -252 0 -10 -56 -94 -75 -114 -5 -6 -53 -77 -105
-158 -52 -82 -116 -177 -142 -213 -27 -36 -48 -71 -48 -77 0 -6 -36 -65 -81
-131 -213 -318 -271 -408 -280 -432 -5 -14 -29 -52 -52 -83 -23 -31 -76 -109
-117 -174 -41 -65 -94 -143 -117 -174 -24 -30 -52 -74 -63 -96 -50 -103 -311
-483 -347 -508 -15 -10 -43 -18 -61 -18 -41 0 -111 40 -152 86 -39 45 -41 104
-5 158 35 51 158 262 186 318 22 44 53 95 201 338 135 222 158 261 158 273 1
7 25 50 55 97 29 47 97 159 151 250 53 91 105 174 115 185 10 11 28 43 40 70
25 57 111 208 174 305 61 94 127 204 172 287 50 93 148 260 238 403 98 157
145 239 145 253 0 7 21 44 45 82 24 39 70 113 101 165 83 139 103 172 162 263
28 45 52 89 53 97 0 8 34 69 74 135 114 185 237 391 290 485 45 80 123 211
293 492 39 66 72 125 72 132 0 6 22 45 49 86 27 41 88 142 137 223 49 82 108
179 131 215 23 37 42 73 42 80 1 14 99 183 129 222 11 14 34 52 53 85 53 96
155 248 186 277 46 44 110 68 184 68 58 0 77 -5 139 -37 117 -60 170 -144 170
-267 -1 -68 -9 -98 -74 -258 -31 -76 -56 -145 -56 -153 0 -9 -16 -53 -34 -98
-102 -242 -296 -744 -359 -927 -19 -58 -72 -202 -117 -320 -153 -406 -206
-552 -246 -680 -15 -47 -40 -119 -57 -160 -30 -78 -131 -352 -218 -593 -27
-76 -49 -149 -49 -163 0 -13 -5 -32 -10 -42 -6 -9 -38 -96 -71 -192 -33 -96
-85 -245 -115 -330 -132 -380 -174 -506 -174 -520 0 -15 -234 -739 -251 -775
-14 -30 -109 -344 -120 -395 -5 -25 -38 -130 -73 -235 -35 -104 -105 -318
-156 -475 -50 -157 -98 -305 -106 -329 -8 -25 -14 -53 -14 -63 0 -11 -13 -61
-29 -111 -90 -282 -124 -392 -145 -468 -14 -46 -47 -158 -74 -249 -100 -332
-122 -412 -122 -439 0 -15 -9 -54 -19 -87 -36 -114 -75 -254 -182 -654 -21
-80 -50 -188 -64 -240 -60 -222 -94 -359 -104 -418 -7 -34 -32 -133 -56 -219
-25 -86 -45 -162 -44 -167 0 -15 108 195 108 212 1 7 55 124 122 260 164 334
232 476 259 542 12 30 69 150 125 265 149 304 215 446 215 461 0 14 74 185
114 264 13 25 53 110 89 190 36 80 87 185 112 233 25 48 45 95 45 103 0 8 59
135 131 282 73 147 157 319 187 382 31 63 71 146 89 184 19 39 45 88 59 110
14 23 60 102 101 176 41 74 83 144 93 155 21 24 70 114 70 127 0 16 100 179
139 228 21 25 65 83 99 130 146 198 246 299 387 387 38 25 82 53 96 63 14 10
61 32 105 50 70 29 92 33 199 37 l120 5 79 -48 c163 -98 206 -172 257 -442 32
-171 32 -173 25 -385 -4 -116 -16 -279 -27 -362 -11 -82 -24 -193 -29 -245 -9
-92 -15 -130 -60 -343 -54 -263 -171 -686 -256 -927 -20 -58 -40 -121 -45
-140 -4 -19 -10 -45 -14 -56 -6 -19 255 234 440 427 91 95 282 286 460 460 88
86 191 193 230 238 38 45 74 81 78 81 10 0 251 248 256 264 2 6 67 74 145 151
180 178 555 568 595 619 17 21 56 60 86 87 59 52 100 66 165 55 38 -6 39 -5
76 50 133 200 407 168 519 -60 23 -47 26 -64 22 -118 -4 -58 -17 -97 -136
-432 -12 -33 -21 -69 -21 -81 0 -12 -11 -53 -24 -91 -14 -38 -38 -107 -54
-154 -52 -147 -113 -349 -157 -515 -23 -88 -58 -218 -78 -290 -19 -71 -40
-150 -45 -175 -6 -25 -33 -124 -61 -220 -28 -96 -71 -256 -95 -355 -25 -99
-52 -205 -60 -235 -38 -136 -106 -436 -125 -545 -58 -349 -114 -721 -136 -897
-25 -207 -20 -488 11 -587 6 -20 22 -4 103 103 38 50 88 111 111 136 23 25 70
78 104 119 33 40 80 96 104 124 23 28 42 56 42 61 0 6 29 42 65 79 75 80 128
150 407 537 61 85 131 177 155 203 23 27 55 69 70 93 27 43 80 114 284 377 50
66 101 137 112 159 12 23 38 59 57 82 33 38 102 130 225 299 27 37 52 67 56
67 4 0 11 10 15 23 8 25 129 205 213 317 64 84 161 226 161 235 0 8 76 120 94
138 13 13 141 195 289 412 121 177 207 299 224 319 31 36 113 154 113 163 0
10 114 179 140 208 23 25 230 331 230 340 0 20 87 118 120 135 46 23 123 26
160 5 36 -21 48 -18 64 14 29 56 175 218 268 298 51 45 114 102 141 127 30 29
82 62 141 90 144 68 192 80 331 80 167 0 210 -24 265 -146 28 -61 27 -186 -1
-248 -55 -122 -106 -151 -274 -159 l-120 -6 -75 -51 c-178 -120 -239 -166
-269 -201 -17 -21 -82 -96 -144 -166 -128 -147 -231 -278 -253 -322 -8 -16
-39 -61 -68 -100 -30 -38 -106 -146 -169 -240 -104 -155 -153 -234 -270 -440
-22 -38 -48 -82 -57 -96 -27 -39 -160 -287 -160 -298 0 -10 -181 -390 -200
-421 -35 -57 -148 -309 -165 -370 -15 -52 -92 -254 -125 -326 -51 -113 -121
-333 -173 -544 -59 -240 -69 -298 -88 -511 -11 -123 -11 -143 6 -210 26 -110
29 -116 68 -123 56 -11 252 72 318 134 8 8 55 46 102 83 74 58 257 251 257
271 0 4 33 45 74 91 96 110 236 307 382 538 27 43 83 130 124 195 71 109 105
169 159 284 13 25 38 70 57 99 61 91 294 515 294 533 0 10 24 63 53 119 238
453 307 587 307 597 0 7 38 89 84 184 224 458 257 530 286 621 7 22 26 67 42
100 16 33 59 128 95 210 36 83 73 166 83 185 31 57 132 293 141 325 8 30 69
176 159 380 27 61 72 166 100 235 29 69 63 148 76 176 13 28 24 58 24 66 0 8
29 82 64 164 35 82 89 214 121 294 31 80 66 165 77 189 34 75 89 224 104 280
8 30 19 60 23 65 5 6 37 83 71 171 34 88 68 174 75 190 39 88 60 139 92 225
20 52 46 118 59 146 13 28 28 72 34 97 5 26 40 122 76 214 101 257 235 624
337 923 66 195 182 511 226 615 21 50 51 131 66 180 81 265 241 739 309 915
13 36 36 103 51 150 47 152 141 427 188 550 13 36 36 110 51 165 36 133 57
172 122 224 66 53 111 70 186 71 119 0 233 -72 281 -180 30 -65 29 -187 -2
-255 -33 -71 -71 -185 -71 -210 0 -12 -12 -59 -26 -106 -15 -46 -48 -163 -74
-259 -25 -96 -51 -184 -57 -195 -13 -25 -112 -346 -148 -480 -15 -55 -33 -120
-40 -145 -7 -25 -16 -63 -19 -85 -3 -22 -40 -155 -81 -295 -236 -793 -244
-821 -266 -910 -37 -147 -66 -252 -97 -355 -17 -55 -39 -134 -50 -175 -11 -41
-34 -122 -50 -180 -35 -120 -120 -428 -151 -543 -12 -42 -21 -86 -21 -97 0
-18 -21 -99 -115 -440 -19 -69 -44 -161 -55 -205 -12 -44 -54 -206 -95 -360
-40 -154 -80 -311 -88 -350 -17 -76 -87 -370 -147 -615 -21 -85 -63 -249 -95
-365 -75 -278 -134 -516 -145 -590 -4 -33 -22 -121 -39 -195 -18 -74 -54 -238
-81 -365 -27 -126 -63 -288 -80 -360 -74 -312 -141 -624 -149 -689 -4 -39 -24
-152 -44 -251 -63 -315 -84 -430 -156 -865 -154 -930 -179 -1166 -203 -1935
-12 -385 -8 -476 18 -454 8 6 14 17 14 23 0 6 12 25 26 41 14 17 69 93 122
170 53 77 118 169 145 205 27 35 54 76 60 90 10 22 97 155 204 310 82 119 163
249 163 262 0 7 13 29 28 48 16 19 66 96 111 170 46 74 107 171 136 215 29 44
75 123 102 175 27 52 78 140 114 195 36 55 85 134 109 175 25 41 63 102 85
135 22 33 46 73 53 88 7 16 42 77 79 135 187 301 273 448 273 465 0 7 24 49
53 94 28 45 85 137 125 205 40 68 100 167 133 221 32 54 59 105 59 112 0 7 31
64 68 126 38 63 101 173 141 244 40 72 87 155 106 185 19 30 34 61 35 68 0 7
34 72 76 145 92 159 242 427 271 482 11 22 30 60 43 85 33 66 136 256 177 325
33 57 105 192 190 354 33 64 45 78 86 99 44 23 50 24 93 12 57 -16 109 -66
125 -120 15 -51 4 -81 -100 -265 -107 -189 -215 -392 -231 -435 -7 -19 -19
-42 -25 -50 -7 -8 -54 -94 -105 -190 -51 -96 -101 -186 -110 -200 -17 -25 -80
-146 -141 -270 -17 -36 -37 -72 -44 -80 -7 -8 -54 -89 -105 -180 -51 -91 -101
-174 -111 -185 -9 -11 -44 -72 -77 -135 -32 -63 -77 -144 -100 -180 -22 -36
-80 -132 -128 -215 -48 -82 -98 -164 -111 -182 -12 -17 -23 -37 -23 -44 0 -13
-155 -283 -180 -314 -19 -23 -190 -319 -190 -329 0 -9 -180 -310 -249 -416
-30 -47 -73 -121 -96 -165 -40 -78 -104 -185 -116 -195 -3 -3 -48 -72 -99
-155 -51 -82 -108 -171 -126 -196 -19 -26 -34 -53 -35 -60 0 -15 -97 -167
-261 -410 -53 -80 -101 -156 -106 -170 -6 -13 -25 -45 -44 -69 -19 -25 -83
-117 -143 -205 -60 -88 -121 -175 -137 -193 -15 -18 -28 -37 -28 -42 0 -21
-155 -235 -292 -404 -43 -52 -78 -99 -78 -105 0 -5 -19 -26 -42 -45 -50 -43
-98 -47 -164 -14 -68 34 -81 53 -104 163 -53 253 -54 270 -53 895 0 338 5 657
12 755 19 278 80 794 126 1080 16 103 64 400 100 620 13 83 41 247 60 365 20
118 43 260 51 315 33 220 71 422 129 695 9 41 32 158 50 260 44 238 100 510
124 608 11 42 31 138 45 212 64 327 82 416 162 770 99 442 163 717 198 855 14
55 26 114 26 130 0 17 12 75 26 130 33 126 104 427 103 434 -1 11 -78 -154
-104 -224 -46 -120 -162 -392 -216 -504 -64 -134 -159 -360 -159 -378 0 -10
-4 -23 -9 -29 -5 -5 -44 -88 -86 -184 -157 -356 -223 -506 -248 -560 -13 -30
-30 -73 -37 -95 -7 -22 -55 -127 -106 -233 -52 -107 -94 -196 -94 -198 0 -2
-31 -66 -68 -142 -38 -75 -75 -155 -82 -177 -7 -22 -61 -137 -121 -255 -59
-118 -119 -240 -133 -270 -14 -30 -38 -75 -52 -100 -15 -24 -36 -69 -46 -99
-18 -52 -87 -190 -129 -260 -21 -35 -141 -265 -211 -406 -110 -219 -132 -262
-148 -285 -10 -14 -36 -61 -60 -105 -84 -159 -122 -226 -156 -276 -19 -28 -34
-57 -34 -65 0 -13 -141 -265 -165 -294 -17 -21 -195 -320 -195 -327 0 -11
-227 -346 -252 -373 -38 -40 -108 -133 -108 -143 0 -27 -391 -439 -510 -538
-136 -113 -399 -219 -542 -219 -135 0 -272 110 -323 260 -37 109 -43 270 -16
472 22 171 63 383 87 451 8 23 35 112 59 197 24 85 69 224 100 308 30 84 55
164 55 178 0 14 18 71 41 127 23 56 63 156 89 222 72 180 148 361 186 444 19
41 34 79 34 86 0 7 29 74 65 150 36 76 64 140 61 142 -5 5 -83 -105 -155 -217
-26 -42 -61 -91 -78 -110 -39 -44 -243 -330 -243 -339 0 -4 -21 -35 -47 -68
-27 -33 -86 -113 -133 -178 -47 -65 -92 -126 -100 -135 -30 -32 -90 -113 -90
-122 0 -11 -153 -222 -190 -263 -31 -34 -137 -185 -190 -271 -19 -31 -45 -67
-58 -81 -13 -14 -58 -73 -100 -132 -102 -143 -165 -225 -174 -229 -4 -2 -8 -8
-8 -13 0 -11 -245 -337 -269 -359 -23 -20 -101 -125 -101 -135 0 -9 -145 -204
-164 -220 -18 -15 -160 -204 -189 -252 -34 -54 -236 -273 -322 -349 l-68 -59
-77 -3 c-61 -3 -87 0 -122 16 -51 22 -138 99 -138 121 0 8 -8 24 -18 35 -25
28 -68 136 -86 216 -24 103 -35 308 -25 485 11 217 53 606 90 844 17 108 35
234 39 281 7 76 43 283 69 400 5 25 26 137 45 250 39 222 90 480 131 655 14
61 32 139 40 175 8 36 23 104 35 153 11 48 25 115 29 150 9 69 88 430 151 691
22 93 38 171 35 175 -7 6 -70 -59 -170 -174 -38 -44 -135 -147 -217 -229 -81
-82 -148 -154 -148 -159 0 -5 -82 -95 -182 -198 -188 -195 -632 -647 -657
-671 -8 -7 -67 -66 -130 -132 -141 -145 -563 -567 -732 -732 -68 -67 -128
-127 -134 -133 -5 -6 -98 -97 -206 -203 -158 -156 -208 -212 -261 -293 -36
-55 -71 -111 -78 -125 -26 -49 -118 -186 -135 -200 -9 -7 -23 -27 -32 -44 -26
-50 -180 -232 -288 -341 -171 -173 -362 -319 -470 -361 -16 -7 -66 -26 -110
-43 -122 -48 -221 -72 -315 -77 -107 -7 -135 8 -175 91 -24 51 -25 61 -16 106
15 70 28 86 159 196 128 108 135 114 343 302 81 72 150 138 153 146 3 8 10 15
16 15 11 0 320 273 388 342 45 46 122 177 202 344 76 158 106 226 114 266 4
15 20 56 36 90 17 35 54 135 84 223 30 88 88 259 130 380 76 223 106 332 125
440 5 33 31 150 56 260 85 371 145 834 145 1128 0 103 -3 187 -6 187 -22 0
-204 -166 -204 -185 0 -7 -12 -22 -26 -36 -14 -13 -50 -58 -80 -99 -30 -41
-71 -97 -91 -125 -56 -76 -173 -253 -173 -262 0 -4 -26 -45 -58 -90 -31 -45
-79 -119 -107 -163 -27 -44 -68 -109 -91 -143 -22 -34 -52 -84 -65 -112 -108
-213 -134 -262 -144 -275 -37 -45 -255 -412 -255 -429 0 -16 -137 -279 -160
-306 -19 -24 -115 -185 -159 -270 -17 -33 -35 -67 -39 -75 -5 -8 -46 -89 -92
-180 -46 -90 -94 -180 -107 -200 -13 -19 -56 -100 -95 -180 -39 -80 -79 -161
-89 -180 -9 -19 -64 -129 -122 -243 -58 -115 -157 -315 -219 -445 -62 -130
-139 -286 -172 -347 -32 -60 -99 -193 -149 -295 -49 -102 -131 -270 -182 -375
-137 -280 -225 -473 -231 -504 l-6 -28 884 -6 c485 -4 1299 -10 1808 -13 1090
-7 1162 -10 1240 -49 68 -35 134 -103 169 -175 23 -48 26 -67 26 -150 -1 -123
-29 -190 -112 -267 -91 -86 -122 -93 -386 -93 -122 0 -402 5 -622 10 -220 5
-751 16 -1180 25 -429 8 -1075 22 -1435 30 -1107 25 -1690 35 -2045 35 -187 0
-542 5 -790 11 -247 6 -623 13 -834 17 -444 8 -394 23 -405 -118 -4 -47 -11
-121 -17 -165 -5 -44 -18 -168 -29 -275 -11 -107 -28 -279 -40 -381 -11 -102
-29 -273 -39 -380 -11 -107 -32 -295 -46 -419 -14 -124 -34 -308 -45 -410 -11
-102 -27 -248 -35 -325 -41 -365 -55 -505 -55 -557 0 -32 -23 -261 -50 -510
-28 -249 -59 -536 -70 -638 -23 -223 -93 -851 -160 -1435 -44 -382 -62 -548
-75 -710 -8 -93 -27 -287 -44 -430 -17 -143 -38 -323 -46 -400 -18 -153 -30
-186 -78 -216 -26 -17 -43 -19 -94 -15 -34 3 -71 11 -83 18 -45 28 -62 119
-45 248 3 25 10 115 15 200 5 85 20 272 34 415 15 143 37 377 51 520 14 143
34 352 45 465 11 113 31 331 45 485 14 154 38 420 55 590 16 171 36 396 45
500 8 105 17 206 20 225 13 93 67 725 75 880 8 154 51 664 65 760 3 19 14 150
25 290 11 140 22 271 25 290 7 44 49 528 70 795 8 110 22 277 30 370 8 94 17
211 20 261 l7 92 -159 6 c-87 3 -421 11 -743 16 -322 6 -931 17 -1355 25 -423
8 -1040 19 -1370 25 -330 6 -791 15 -1025 21 -414 9 -1238 25 -1629 31 l-194
3 -41 -71 c-22 -39 -66 -113 -97 -165 -65 -110 -152 -267 -159 -289 -17 -52
-146 -273 -171 -295 -74 -62 -217 -6 -235 92 -12 63 63 234 242 558 45 83 86
157 89 166 8 21 -85 25 -915 39 -633 11 -1795 34 -2585 50 -264 5 -750 14
-1080 20 -330 6 -941 17 -1358 25 l-759 13 -56 29 c-49 24 -61 36 -84 83 -15
30 -27 72 -28 92 0 49 36 146 67 180 47 50 80 51 952 44 438 -4 1993 -11 3456
-16 2070 -6 2663 -6 2673 4 6 6 54 95 106 196 95 188 209 405 330 629 37 68
74 145 83 170 8 25 23 57 33 71 16 23 54 95 262 495 37 72 67 135 68 142 0 6
54 116 121 245 67 128 141 271 165 318 24 47 53 108 63 136 11 28 34 77 52
110 17 32 69 131 114 219 46 88 110 212 144 275 33 63 61 124 61 136 0 11 16
47 36 80 20 32 74 133 120 224 46 91 113 221 149 290 35 69 65 131 65 139 0 8
21 52 47 99 25 47 78 149 116 226 39 78 73 143 78 146 9 6 119 233 119 247 0
6 16 41 36 79 38 72 178 343 270 524 29 58 53 111 54 118 0 7 24 59 54 115
145 276 306 596 306 608 0 8 54 120 120 249 149 294 250 500 250 512 0 5 80
172 179 371 98 199 182 375 186 392 3 16 11 35 16 41 5 6 47 89 94 184 47 95
89 178 94 184 12 15 151 304 151 314 0 5 64 137 143 293 79 156 163 327 187
379 24 52 119 248 210 435 92 187 171 351 175 365 4 14 59 131 122 260 64 129
146 299 184 376 38 78 69 147 69 153 0 9 88 191 311 646 32 66 59 126 59 133
0 12 215 467 305 645 25 49 45 95 45 102 0 17 98 228 128 275 12 19 22 38 22
43 0 8 51 117 154 328 36 75 66 144 66 152 0 9 27 74 61 144 34 70 88 189 121
263 33 74 64 140 68 145 13 17 110 239 110 252 0 7 19 52 41 100 23 49 67 144
99 213 32 69 94 204 139 300 45 96 81 182 81 190 0 9 4 20 9 26 5 5 43 88 86
184 43 96 84 184 91 195 6 11 42 90 79 175 37 85 71 160 76 166 5 6 19 42 33
80 13 38 47 121 76 184 29 63 80 178 115 255 34 77 83 184 109 238 25 55 50
115 55 135 9 39 64 171 86 207 7 11 45 97 85 192 64 150 80 179 132 237 68 75
99 95 178 112 71 16 67 16 136 3z m6430 -14656 c-3 -10 -19 -94 -36 -188 -50
-272 -50 -325 7 -1179 l6 -99 -29 8 c-16 4 -300 9 -631 12 -332 3 -603 8 -603
11 0 4 82 88 181 187 100 99 201 203 224 230 51 61 117 175 155 270 30 77 83
196 103 235 13 27 601 530 618 530 6 0 8 -8 5 -17z m5510 -942 c-3 -53 -11
-213 -16 -356 -6 -143 -15 -368 -20 -500 -6 -132 -10 -316 -10 -410 0 -166 4
-200 47 -383 6 -24 6 -24 -63 -16 -38 5 -97 7 -131 6 -56 -2 -486 -69 -590
-93 -23 -5 -172 -31 -330 -59 -553 -96 -566 -100 -691 -166 -170 -89 -300
-221 -384 -389 -33 -64 -75 -198 -84 -264 -4 -28 -9 -53 -13 -55 -3 -2 -40 10
-81 26 -131 52 -184 60 -452 63 -233 3 -251 5 -322 29 -115 38 -226 49 -436
43 -136 -4 -203 -10 -255 -24 l-70 -19 -70 33 -70 33 -11 63 c-32 170 -135
354 -262 468 -27 24 -119 97 -206 163 -149 113 -184 146 -118 112 17 -9 70
-28 119 -42 79 -24 104 -27 243 -27 128 0 169 3 235 21 154 42 350 165 438
274 18 23 75 66 131 101 141 87 228 177 381 397 70 102 131 188 134 192 4 5
37 -30 75 -77 152 -192 363 -306 616 -335 67 -8 134 -4 408 26 456 48 479 51
570 78 210 63 241 88 738 588 317 317 436 444 478 506 31 46 56 88 56 93 0 6
5 7 11 3 8 -5 9 -36 5 -103z m-5696 -2341 c58 -6 150 -15 205 -19 197 -18 471
-137 530 -232 37 -57 43 -117 16 -151 -50 -63 -141 -55 -175 16 -10 21 -15 44
-12 52 10 27 -12 51 -61 68 -25 9 -48 16 -50 16 -2 0 -3 -14 -3 -31 0 -23 -11
-41 -43 -73 -23 -24 -47 -45 -52 -47 -25 -10 -298 -328 -324 -376 -5 -11 -25
-38 -43 -60 -18 -23 -64 -85 -103 -138 -38 -54 -89 -121 -113 -149 -46 -54
-95 -136 -88 -144 6 -5 268 98 336 133 25 12 70 33 100 46 60 26 194 118 223
152 10 12 23 34 28 49 15 39 40 43 119 19 126 -39 134 -103 26 -218 -16 -18
-34 -33 -38 -33 -5 0 -41 -22 -81 -49 -114 -77 -626 -301 -688 -301 -30 0
-119 -31 -119 -41 0 -21 54 -89 90 -114 49 -34 120 -52 235 -61 157 -11 327
36 525 146 52 29 114 61 138 71 67 29 182 107 182 123 0 17 201 223 228 234 9
4 49 28 87 53 127 83 182 89 271 30 59 -39 93 -77 126 -138 23 -42 23 -80 -1
-119 -32 -52 -208 -184 -245 -184 -7 0 -28 -8 -47 -17 -56 -28 -138 -29 -189
-3 l-44 22 -23 -28 c-47 -58 -77 -176 -53 -200 12 -12 94 -2 180 22 65 19 317
123 412 170 37 19 73 34 80 34 18 0 261 118 328 159 33 20 78 63 115 108 61
75 135 137 186 155 49 17 169 -39 169 -79 0 -8 -29 -48 -65 -88 -36 -40 -65
-76 -65 -80 0 -4 -35 -50 -77 -102 -121 -148 -153 -206 -153 -275 0 -39 21
-45 97 -25 63 17 88 30 204 114 135 97 271 226 417 395 41 47 83 89 94 91 11
3 45 1 76 -5 113 -20 119 -32 133 -223 14 -186 7 -340 -19 -422 -23 -74 -24
-73 83 -73 115 0 213 -30 263 -80 39 -39 40 -52 5 -80 -25 -20 -35 -21 -98
-15 -88 9 -226 8 -285 -3 l-45 -7 -41 -100 c-22 -55 -55 -130 -72 -168 -38
-80 -158 -283 -172 -292 -6 -4 -26 -31 -45 -60 -39 -62 -246 -280 -285 -300
-14 -8 -45 -32 -70 -55 -120 -108 -347 -227 -500 -261 -184 -40 -362 -10 -459
77 -111 100 -137 160 -116 265 33 168 374 510 643 646 29 14 57 32 63 40 7 7
18 13 27 13 8 0 74 31 146 69 246 130 343 171 558 236 48 15 93 34 101 43 28
32 106 316 107 385 l0 29 -38 -31 c-21 -16 -92 -80 -158 -141 -133 -125 -265
-218 -327 -232 -126 -28 -309 -15 -371 27 -38 26 -114 138 -122 182 -3 18 -12
33 -19 33 -15 0 -130 -49 -255 -108 -174 -83 -287 -122 -377 -134 -98 -12
-261 -6 -310 12 -33 12 -96 86 -128 150 -10 19 -19 37 -21 39 -1 2 -29 -13
-61 -32 -74 -45 -240 -122 -307 -143 -120 -37 -383 -46 -536 -19 -40 8 -134
53 -196 96 -23 16 -45 29 -48 29 -3 0 -6 -38 -6 -85 0 -72 -3 -88 -20 -105
-39 -39 -158 -17 -182 34 -6 15 -15 26 -19 26 -16 0 -31 75 -26 131 3 33 3 59
0 59 -2 0 -19 -11 -36 -24 -56 -42 -156 -97 -204 -111 -65 -20 -173 -19 -236
2 -93 30 -189 149 -204 251 l-8 52 -170 -122 c-93 -67 -179 -131 -189 -140
-11 -10 -40 -28 -65 -41 -99 -48 -254 -15 -293 64 -23 45 -22 123 1 186 22 61
127 170 268 279 48 38 97 77 108 87 58 54 99 57 227 17 116 -36 116 -78 0
-136 -59 -30 -101 -62 -177 -136 -99 -97 -134 -138 -116 -138 5 0 31 20 59 45
27 25 54 45 60 45 12 0 210 176 308 274 39 39 89 83 110 98 l40 28 89 -29
c135 -45 139 -58 64 -212 -42 -85 -52 -117 -57 -171 -5 -76 10 -113 52 -124
24 -6 94 30 206 105 25 17 49 31 54 31 5 0 34 19 65 42 123 93 180 150 227
226 26 42 55 86 65 97 24 28 150 222 174 269 11 22 45 67 75 100 31 34 69 79
85 101 73 97 217 270 293 353 95 104 99 95 -60 112 -338 34 -1072 15 -1488
-39 -41 -6 -120 -16 -175 -22 -92 -11 -102 -14 -130 -44 -16 -17 -37 -45 -45
-61 -8 -16 -36 -54 -61 -84 -26 -30 -91 -113 -144 -185 -54 -71 -111 -145
-127 -164 -16 -18 -35 -45 -41 -60 -6 -14 -32 -57 -58 -96 -25 -38 -63 -97
-84 -130 -21 -33 -41 -62 -44 -65 -4 -3 -28 -41 -53 -85 -163 -284 -276 -554
-323 -768 -29 -135 -31 -166 -10 -193 21 -28 18 -42 -15 -59 -66 -34 -138 -13
-210 60 l-44 45 2 73 c1 39 8 99 16 132 25 106 87 298 119 370 37 80 169 327
215 400 56 90 112 192 112 205 0 13 91 144 140 200 17 19 49 62 72 95 22 33
65 93 95 133 30 40 59 84 65 98 6 13 14 24 18 24 4 0 22 21 40 46 l33 47 -34
-5 c-140 -20 -704 -141 -889 -191 -25 -6 -88 -12 -141 -12 l-96 0 -47 39 c-26
21 -50 45 -53 54 -8 20 20 39 70 47 23 4 177 40 342 80 165 41 359 85 430 99
259 50 401 76 474 86 44 6 83 18 94 28 15 13 49 18 175 24 87 4 195 12 242 17
47 6 126 11 175 11 50 0 140 5 200 11 292 28 855 33 1105 9z m-4615 -120 c105
-45 96 -127 -30 -271 -22 -26 -57 -70 -79 -97 -21 -28 -90 -104 -153 -169 -64
-65 -141 -148 -172 -184 -82 -95 -175 -200 -265 -298 -43 -47 -82 -95 -87
-106 -5 -11 -48 -67 -95 -125 -112 -138 -261 -360 -274 -410 -6 -21 -17 -46
-25 -54 -22 -22 -53 -98 -60 -149 -9 -57 -33 -80 -83 -80 -73 0 -126 48 -151
138 -8 31 -5 43 26 103 66 124 169 287 258 407 13 17 32 49 44 72 20 41 67 99
263 325 51 59 108 127 126 152 19 25 74 87 122 138 49 51 87 94 85 97 -3 2
-36 -22 -74 -53 -39 -31 -80 -60 -91 -64 -11 -4 -44 -28 -73 -54 -70 -62 -348
-293 -411 -342 -98 -76 -281 -230 -329 -278 -27 -26 -55 -48 -62 -48 -7 0 -18
-7 -25 -15 -7 -8 -64 -54 -129 -102 -64 -48 -127 -98 -141 -111 -34 -33 -200
-142 -217 -142 -7 0 -53 -20 -101 -44 -251 -126 -478 -141 -647 -41 -86 50
-135 183 -116 317 15 110 118 302 277 514 46 62 84 116 84 121 0 8 102 141
174 226 113 136 186 227 186 235 0 11 105 112 174 167 47 38 53 40 117 40 67
0 70 -1 111 -42 37 -37 41 -46 33 -67 -6 -13 -46 -54 -90 -91 -44 -37 -109
-100 -145 -140 -36 -41 -95 -107 -132 -148 -38 -41 -68 -79 -68 -84 0 -6 -17
-30 -38 -54 -38 -45 -111 -140 -214 -279 -31 -42 -72 -105 -91 -141 -18 -35
-57 -107 -85 -159 -70 -129 -99 -254 -69 -295 32 -43 238 -2 391 79 81 42 258
157 343 222 25 19 50 34 57 34 7 0 30 16 52 36 35 33 112 93 299 232 33 25 68
56 78 69 10 12 23 23 28 23 10 0 248 188 334 264 77 67 112 96 120 96 11 0
216 161 270 212 28 26 53 48 56 48 3 0 34 22 70 50 35 27 69 50 74 50 13 0 97
66 145 113 66 66 208 158 278 182 38 14 70 8 147 -25z m929 -17 c69 -25 82
-49 62 -110 -16 -46 -98 -201 -163 -308 -84 -137 -146 -249 -163 -292 -24 -63
-64 -161 -100 -248 -28 -68 -135 -386 -199 -591 -19 -62 -31 -123 -31 -157 0
-37 -5 -61 -16 -71 -19 -20 -74 -21 -119 -2 -39 17 -86 84 -87 124 0 26 26
130 106 416 20 71 35 131 33 133 -3 2 -33 -33 -68 -77 -35 -45 -85 -105 -110
-133 -60 -68 -139 -171 -139 -181 0 -18 -158 -206 -172 -206 -5 0 -30 -18 -56
-39 -146 -123 -315 -133 -440 -26 -64 56 -84 95 -83 168 0 80 31 208 66 277
73 143 208 307 292 354 111 61 138 70 214 71 42 0 82 -5 90 -11 8 -6 28 -14
44 -18 45 -10 115 -48 126 -68 8 -16 14 -13 49 23 48 50 201 252 224 297 9 18
25 41 35 51 17 17 181 247 225 316 11 16 39 53 63 83 23 29 43 58 43 65 1 24
80 121 121 149 49 33 85 35 153 11z m9698 -63 c105 -11 164 -35 224 -92 34
-32 44 -49 42 -68 -3 -24 -6 -25 -63 -24 -33 0 -98 5 -145 11 -57 8 -126 8
-210 2 -69 -5 -192 -13 -273 -19 -82 -5 -152 -12 -156 -15 -5 -2 -71 -14 -147
-25 -76 -12 -161 -27 -189 -35 -27 -7 -62 -16 -77 -19 -20 -5 -34 -19 -51 -54
-30 -60 -107 -163 -164 -220 -24 -24 -43 -50 -43 -57 0 -7 -26 -48 -58 -91
-32 -44 -78 -108 -103 -144 -24 -36 -52 -74 -61 -84 -10 -11 -17 -21 -15 -22
1 -1 40 2 85 8 46 5 163 8 260 6 146 -2 183 -6 210 -21 39 -21 44 -58 9 -74
-32 -15 -281 -60 -456 -83 -113 -15 -208 -46 -236 -76 -67 -72 -210 -389 -240
-529 -20 -93 -20 -175 -1 -175 19 0 193 58 226 75 26 14 171 63 320 109 145
45 269 67 408 73 l133 6 -38 17 c-45 21 -85 62 -102 107 -21 52 2 122 83 261
95 164 128 213 148 226 22 13 111 -8 155 -38 50 -32 57 -66 26 -123 -14 -26
-29 -59 -34 -72 -9 -22 -8 -23 8 -10 23 19 221 186 307 261 107 92 117 95 222
69 101 -24 134 -48 134 -96 0 -41 -35 -127 -100 -243 -29 -51 -50 -95 -47 -98
2 -3 34 20 70 50 36 31 70 56 75 56 5 0 22 14 38 30 31 32 156 135 294 242 47
36 94 74 105 85 34 32 342 246 404 280 121 68 223 73 333 17 103 -52 95 -92
-99 -479 -31 -60 -66 -128 -79 -150 -12 -22 -45 -96 -72 -165 -52 -129 -72
-210 -53 -210 6 0 69 57 140 126 101 98 134 136 148 172 39 105 101 194 220
314 88 89 172 139 241 142 27 2 69 14 99 29 73 38 120 36 180 -7 27 -18 69
-45 95 -60 55 -32 78 -74 78 -144 l0 -51 38 6 c20 3 75 16 121 29 71 19 89 29
110 56 14 18 54 63 90 101 47 49 71 67 90 67 42 0 125 -36 145 -63 18 -25 18
-26 -3 -61 -14 -21 -20 -43 -16 -55 4 -14 -4 -28 -27 -50 -18 -17 -36 -31 -40
-31 -20 0 -248 -302 -248 -328 0 -20 124 50 207 116 95 75 233 178 333 247 47
32 87 61 90 64 12 14 122 81 155 95 50 21 104 20 159 -3 54 -24 81 -60 73
-100 -14 -70 -75 -173 -202 -342 -114 -152 -176 -240 -185 -265 -6 -16 -20
-25 -46 -30 -77 -14 -128 32 -127 114 1 47 24 104 74 180 11 17 18 32 14 32
-3 0 -41 -26 -83 -58 -159 -120 -253 -184 -328 -219 -160 -76 -279 -50 -335
72 -25 54 -24 147 1 202 10 24 15 45 10 48 -4 3 -45 -4 -91 -15 -46 -11 -95
-23 -107 -26 -13 -2 -45 -26 -71 -52 -56 -56 -200 -159 -312 -224 -69 -40 -91
-47 -155 -53 -75 -7 -155 0 -186 16 -12 7 -28 -2 -67 -40 -92 -89 -235 -142
-326 -121 -53 12 -171 133 -181 187 -16 85 9 180 91 343 25 49 45 98 45 107 1
19 72 167 134 276 21 37 36 70 34 73 -13 12 -441 -311 -545 -412 -30 -30 -59
-54 -64 -54 -6 0 -36 -21 -68 -47 -163 -135 -211 -176 -211 -182 0 -12 -123
-98 -162 -114 -107 -45 -177 -31 -267 51 -62 56 -64 59 -69 115 l-4 57 -67
-59 c-93 -81 -194 -150 -253 -171 l-50 -18 64 -4 c59 -3 66 -6 101 -43 20 -22
37 -48 37 -57 0 -22 -62 -42 -103 -33 -103 21 -180 14 -452 -44 -126 -27 -389
-108 -526 -161 -114 -45 -275 -62 -365 -38 -50 14 -99 60 -128 123 -29 60 -21
172 24 325 12 41 28 100 36 130 8 29 30 83 49 119 19 36 33 67 30 69 -2 2 -35
-2 -73 -8 -57 -11 -74 -10 -98 2 -27 13 -29 17 -27 67 4 97 35 119 241 171 64
16 118 34 120 39 2 6 26 41 54 78 27 37 61 92 75 121 13 29 35 65 47 80 12 15
38 52 59 82 21 30 62 86 91 124 29 38 61 83 71 99 l18 30 -39 -6 c-21 -4 -91
-10 -155 -13 -134 -8 -195 6 -247 57 -31 30 -41 62 -24 73 20 12 255 58 342
66 52 5 176 25 275 44 99 19 221 41 270 50 394 68 469 78 670 95 141 12 141
12 237 1z"/>
<path d="M15847 28395 c-9 -20 -17 -42 -17 -50 0 -16 -84 -194 -245 -518 -57
-114 -106 -219 -110 -235 -4 -15 -31 -74 -60 -132 -29 -58 -84 -168 -122 -244
-37 -77 -78 -158 -90 -180 -41 -77 -93 -186 -93 -196 0 -6 -83 -176 -184 -378
-101 -202 -246 -492 -322 -645 -77 -154 -141 -280 -144 -282 -3 -2 -21 -40
-40 -86 -19 -45 -102 -216 -184 -378 -81 -163 -163 -326 -182 -364 -19 -37
-34 -72 -34 -78 0 -6 -81 -167 -180 -359 -99 -192 -180 -354 -180 -360 0 -11
-83 -174 -234 -460 -24 -47 -65 -128 -91 -180 -123 -251 -153 -312 -275 -540
-71 -135 -130 -251 -130 -259 0 -8 -33 -75 -74 -150 -175 -324 -282 -528 -292
-561 -7 -19 -37 -80 -68 -135 -30 -55 -90 -167 -133 -250 -42 -82 -83 -159
-89 -170 -7 -11 -27 -49 -44 -85 -96 -198 -159 -323 -240 -475 -50 -93 -102
-195 -116 -225 -55 -117 -81 -168 -133 -265 -83 -155 -216 -406 -238 -450 -11
-22 -47 -94 -79 -160 -32 -66 -73 -142 -90 -170 -39 -63 -149 -274 -294 -565
-40 -80 -79 -152 -85 -160 -7 -8 -56 -100 -110 -205 -226 -439 -268 -521 -280
-535 -7 -8 -81 -149 -164 -312 -83 -164 -179 -348 -214 -410 -35 -62 -85 -156
-111 -208 -72 -143 -149 -283 -311 -565 -47 -82 -88 -161 -92 -175 -3 -14 -30
-65 -58 -115 -29 -49 -84 -148 -123 -220 -39 -71 -96 -175 -126 -230 -31 -55
-59 -110 -62 -123 -4 -12 -26 -57 -49 -100 -24 -42 -73 -133 -110 -202 -38
-69 -98 -179 -135 -245 -37 -66 -70 -131 -74 -145 -3 -14 -31 -70 -62 -125
-31 -55 -96 -172 -143 -260 -48 -88 -95 -172 -105 -187 -10 -15 -28 -51 -40
-80 -12 -29 -47 -102 -79 -161 -32 -60 -57 -110 -55 -112 2 -2 645 -9 1428
-14 3439 -26 4793 -32 4800 -25 9 10 60 551 60 639 0 53 40 513 84 980 16 164
47 500 71 775 8 85 21 223 29 305 8 83 22 236 31 340 9 105 27 307 41 450 56
588 95 1051 104 1225 5 102 14 237 20 300 5 63 17 201 25 305 31 373 45 544
70 830 14 160 34 405 45 545 11 140 29 352 40 470 11 118 31 357 45 530 14
173 34 416 45 540 20 230 52 608 70 827 5 67 10 160 10 207 0 47 5 129 10 183
12 108 33 358 85 1013 20 239 42 507 50 595 8 88 19 225 25 305 13 181 54 679
80 990 11 129 34 408 51 620 17 212 37 462 45 555 7 94 14 222 14 285 0 63 6
203 14 310 23 305 29 410 24 410 -2 0 -12 -16 -21 -35z m-1181 -4622 c-3 -27
-17 -187 -31 -358 -14 -170 -32 -380 -40 -465 -8 -85 -33 -369 -55 -630 -22
-261 -45 -518 -50 -570 -12 -121 -36 -387 -50 -560 -19 -235 -40 -480 -56
-635 -8 -82 -30 -334 -49 -560 -19 -225 -46 -531 -59 -680 -14 -148 -30 -333
-36 -410 -6 -77 -25 -284 -41 -460 -16 -176 -40 -453 -54 -615 -28 -336 -36
-432 -64 -725 -11 -115 -27 -300 -36 -410 -14 -178 -35 -419 -65 -735 -5 -58
-26 -294 -45 -525 -20 -231 -41 -472 -48 -535 l-12 -115 -2002 -3 c-1102 -1
-2003 2 -2003 6 0 5 52 107 116 228 64 120 150 284 192 364 41 80 90 171 109
203 18 32 33 61 33 64 0 16 145 269 159 277 31 18 124 111 168 169 49 64 92
144 220 411 47 99 145 303 219 454 74 151 134 276 134 277 0 2 65 137 145 300
80 163 145 298 145 299 0 2 59 124 131 272 127 259 133 271 195 327 106 97
177 203 234 348 12 28 43 89 70 136 28 46 50 86 50 88 0 3 26 62 59 132 32 71
85 184 116 253 32 69 75 163 96 208 22 46 39 85 39 87 0 2 20 45 44 97 55 118
210 457 286 624 22 50 45 82 76 108 93 78 190 221 241 355 13 35 37 83 54 107
24 35 165 325 339 699 24 52 263 562 300 640 58 124 364 773 395 840 18 39 49
105 69 149 27 60 56 101 123 173 110 119 155 179 200 270 20 40 38 73 41 73 2
0 2 -21 -2 -47z"/>
<path d="M23878 11662 c-74 -66 -129 -122 -120 -122 23 0 166 110 182 141 18
33 -14 23 -62 -19z"/>
<path d="M25195 10758 c-44 -16 -117 -45 -162 -63 -45 -19 -88 -35 -96 -35
-17 0 -267 -132 -327 -173 -25 -17 -83 -61 -130 -97 -47 -36 -101 -75 -120
-87 -55 -34 -166 -152 -200 -213 -82 -147 -102 -216 -80 -271 18 -42 46 -50
133 -39 97 12 231 62 314 116 37 24 71 44 76 44 17 0 163 116 232 185 92 91
192 200 230 250 80 105 178 271 200 340 7 22 16 48 20 58 9 21 7 21 -90 -15z"/>
<path d="M17790 11626 c-89 -63 -102 -77 -157 -164 -70 -112 -110 -194 -122
-252 -12 -60 -17 -157 -9 -165 8 -8 125 81 138 105 13 24 188 220 236 265 63
58 134 145 134 164 0 15 -13 23 -55 36 -41 11 -59 22 -67 40 -6 14 -14 25 -17
25 -3 0 -40 -25 -81 -54z"/>
<path d="M30652 11670 c-43 -31 -98 -112 -87 -130 3 -5 19 -10 34 -10 22 0 36
11 69 56 27 36 42 67 42 85 0 36 -7 36 -58 -1z"/>
<path d="M30334 11480 c-27 -34 -59 -74 -72 -89 l-22 -26 25 -18 c33 -25 32
-44 -7 -86 l-33 -34 40 23 c22 13 75 50 118 82 44 33 85 62 92 65 10 3 3 15
-22 36 -20 18 -44 49 -54 71 l-17 39 -48 -63z"/>
<path d="M25550 24864 c-242 -46 -421 -160 -591 -379 -281 -361 -307 -414
-394 -810 -153 -694 -153 -703 22 -1140 93 -234 127 -301 196 -390 104 -136
279 -255 442 -303 94 -27 230 -40 335 -31 111 9 441 75 553 111 216 68 394
215 505 418 28 51 91 226 197 542 86 257 163 491 171 520 8 29 17 112 21 184
7 152 -10 256 -84 514 -51 180 -101 281 -189 384 -158 185 -284 252 -654 343
-136 34 -156 37 -325 39 -99 1 -191 0 -205 -2z m375 -913 c125 -55 199 -189
175 -318 -5 -26 -27 -100 -50 -163 -23 -63 -46 -133 -51 -155 -18 -69 -91
-300 -99 -310 -4 -5 -17 -44 -29 -85 -30 -99 -62 -153 -114 -188 -57 -39 -99
-52 -166 -52 -94 1 -190 60 -232 143 -29 57 -22 142 34 382 25 110 64 280 86
377 52 233 97 314 209 375 41 21 56 24 117 21 42 -3 90 -14 120 -27z"/>
</g>
</svg>
